PathFileType	4	(X/Y/Z)	/Users/itak/Documents/Research/Walk-IL/dataset/trc/00398_00012.trc
DataRate	CameraRate	NumFrames	NumMarkers	Units	OrigDataRate	OrigDataStartFrame	OrigNumFrames
100.000000	100.000000	4	53	mm	100.000000	0	757
Frame#	Time	RPSI			LPSI			L3			STRN			T10			C7			CLAV			RBAK			LBAK			LSHO			LUPA			LAEL			LAOL			LWTS			LWPS			LFRA			LIFD			LHPS			LHTS			RSHO			RUPA			RAEL			RAOL			RWTS			RWPS			RFRA			RIFD			RHTS			RHPS			RBHD			LFHD			RFHD			LBHD			LHIP			RHIP			RASI			LASI			LKNE			LTHI			LANK			LTIP			LTOE			LMT1			LMT5			LHEE			RKNE			RTHI			RANK			RTIP			RTOE			RMT1			RMT5			RHEE			
		X1	Y1	Z1	X2	Y2	Z2	X3	Y3	Z3	X4	Y4	Z4	X5	Y5	Z5	X6	Y6	Z6	X7	Y7	Z7	X8	Y8	Z8	X9	Y9	Z9	X10	Y10	Z10	X11	Y11	Z11	X12	Y12	Z12	X13	Y13	Z13	X14	Y14	Z14	X15	Y15	Z15	X16	Y16	Z16	X17	Y17	Z17	X18	Y18	Z18	X19	Y19	Z19	X20	Y20	Z20	X21	Y21	Z21	X22	Y22	Z22	X23	Y23	Z23	X24	Y24	Z24	X25	Y25	Z25	X26	Y26	Z26	X27	Y27	Z27	X28	Y28	Z28	X29	Y29	Z29	X30	Y30	Z30	X31	Y31	Z31	X32	Y32	Z32	X33	Y33	Z33	X34	Y34	Z34	X35	Y35	Z35	X36	Y36	Z36	X37	Y37	Z37	X38	Y38	Z38	X39	Y39	Z39	X40	Y40	Z40	X41	Y41	Z41	X42	Y42	Z42	X43	Y43	Z43	X44	Y44	Z44	X45	Y45	Z45	X46	Y46	Z46	X47	Y47	Z47	X48	Y48	Z48	X49	Y49	Z49	X50	Y50	Z50	X51	Y51	Z51	X52	Y52	Z52	X53	Y53	Z53	

1	0	9.051421165466309	990.900146484375	1247.3388671875	4.433571338653564	982.2727661132812	1115.94775390625	8.641144752502441	1057.560668945312	1178.140625	231.6073150634766	1214.397827148438	1184.020629882812	-11.04065418243408	1159.340454101562	1170.228637695312	21.03323745727539	1409.663330078125	1155.577026367188	176.7412567138672	1332.781372070312	1177.605590820312	-27.5915584564209	1265.015258789062	1222.303466796875	17.11332321166992	1370.184448242188	1051.496948242188	108.3614044189453	1386.97021484375	1010.056457519531	97.99286651611328	1268.620849609375	938.9140014648438	131.7790832519531	1070.28662109375	923.4970092773438	69.35057830810547	1047.464599609375	976.925048828125	235.4171600341797	867.5814819335938	992.7577514648438	197.9724884033203	847.5062866210938	922.1937866210938	158.5321044921875	967.2210083007812	921.3792114257812	247.5894470214844	688.7996215820312	1000.617431640625	217.2127227783203	763.68212890625	937.7998046875	263.2344360351562	771.0684204101562	981.3011474609375	64.78635406494141	1391.762084960938	1319.135375976562	47.0892219543457	1327.966918945312	1376.563720703125	62.86004638671875	1067.603515625	1430.952514648438	52.16767501831055	1053.456420898438	1338.541381835938	205.2122955322266	859.69873046875	1424.445556640625	158.8619842529297	848.9031982421875	1480.432006835938	91.78556060791016	1005.787902832031	1453.772705078125	213.9816131591797	687.530029296875	1436.985473632812	228.4917297363281	758.1205444335938	1451.69482421875	168.7467041015625	761.9672241210938	1486.332153320312	56.9742431640625	1602.159423828125	1242.082153320312	223.3370056152344	1597.144775390625	1132.80712890625	190.5007629394531	1604.14013671875	1251.310546875	83.06270599365234	1590.137817382812	1082.54443359375	93.40664672851562	966.4957885742188	1003.472961425781	90.48641204833984	969.392822265625	1361.624755859375	225.5419158935547	974.93408203125	1304.648071289062	207.3318176269531	965.0445556640625	1042.041381835938	116.5176849365234	474.1132202148438	1022.32958984375	115.8320770263672	616.7341918945312	1012.036193847656	19.49038314819336	40.92502593994141	1070.147827148438	61.57226943969727	245.0311889648438	1035.068603515625	234.4773559570312	42.942138671875	1125.600341796875	156.8211212158203	43.8884391784668	1158.707885742188	145.9107360839844	40.32148361206055	1053.68701171875	-17.3699951171875	39.27652359008789	1128.086181640625	127.9371490478516	476.6529541015625	1338.536010742188	173.7009582519531	738.66748046875	1360.120727539062	65.57871246337891	55.44186019897461	1305.412475585938	133.3309020996094	349.6860961914062	1324.240112304688	247.0115814208984	41.17237091064453	1250.922241210938	173.6182098388672	45.53078842163086	1217.089965820312	148.2252502441406	45.16503524780273	1315.385498046875	-5.666526794433594	45.59175109863281	1249.512084960938	
2	0.01	8.767423629760742	991.1113891601562	1247.528076171875	4.421108722686768	982.274658203125	1115.942504882812	8.533168792724609	1057.633178710938	1178.20751953125	231.5750122070312	1214.391479492188	1184.006591796875	-11.0511531829834	1159.344116210938	1170.224365234375	20.97969245910645	1409.680297851562	1155.524291992188	176.7069396972656	1332.777099609375	1177.586303710938	-27.6129207611084	1265.027099609375	1222.2734375	17.09456443786621	1370.178466796875	1051.477783203125	108.349609375	1386.955688476562	1010.027587890625	98.02437591552734	1268.610107421875	938.8938598632812	131.7830352783203	1070.277099609375	923.4896240234375	69.32878875732422	1047.46337890625	976.90771484375	235.4053802490234	867.5708618164062	992.7844848632812	197.9582824707031	847.5018920898438	922.20947265625	158.54052734375	967.2120361328125	921.3972778320312	247.5757141113281	688.78515625	1000.692443847656	217.2547454833984	763.6783447265625	937.8490600585938	263.2020263671875	771.05810546875	981.35302734375	64.73265075683594	1391.792358398438	1318.971923828125	47.0263786315918	1327.979125976562	1376.541870117188	62.84661102294922	1067.621337890625	1430.942138671875	52.16301727294922	1053.46240234375	1338.543823242188	205.2196044921875	859.7227783203125	1424.461669921875	158.87060546875	848.9447021484375	1480.461547851562	91.77925872802734	1005.799499511719	1453.776977539062	214.0094604492188	687.5973510742188	1436.99169921875	228.4985504150391	758.1239624023438	1451.697021484375	168.7806701660156	761.9411010742188	1486.43994140625	56.90616607666016	1602.149047851562	1242.044799804688	223.3219757080078	1597.16943359375	1132.79150390625	190.4231262207031	1604.152221679688	1251.276977539062	83.02397918701172	1590.138671875	1082.502807617188	93.39366912841797	966.5034790039062	1003.485229492188	90.50289154052734	969.3845825195312	1361.614624023438	225.501220703125	974.9480590820312	1304.636596679688	207.3120422363281	965.0468139648438	1042.033935546875	116.524528503418	474.1130676269531	1022.328247070312	115.8268966674805	616.7337646484375	1012.03759765625	19.49200439453125	40.93368148803711	1070.1416015625	61.58144760131836	245.0340423583984	1035.07373046875	234.4725799560547	42.94512176513672	1125.595703125	156.8211517333984	43.88805770874023	1158.707763671875	145.9113616943359	40.31999588012695	1053.687255859375	-17.37300300598145	39.28136444091797	1128.087768554688	127.9476165771484	476.6537475585938	1338.533813476562	173.6968536376953	738.6681518554688	1360.117309570312	65.58180999755859	55.45262908935547	1305.417602539062	133.3323364257812	349.6889343261719	1324.240234375	247.0123901367188	41.17694473266602	1250.922241210938	173.6195678710938	45.54055786132812	1217.088989257812	148.2232360839844	45.1669807434082	1315.392333984375	-5.623444080352783	45.5608024597168	1249.475952148438	
3	0.02	8.505972862243652	991.3042602539062	1247.697631835938	4.408124446868896	982.2757568359375	1115.934814453125	8.413073539733887	1057.711303710938	1178.279541015625	231.5305633544922	1214.379272460938	1183.984619140625	-11.07359504699707	1159.349609375	1170.213012695312	20.92361259460449	1409.697631835938	1155.468505859375	176.6653442382812	1332.774291992188	1177.561767578125	-27.61846542358398	1265.038452148438	1222.248046875	17.0700798034668	1370.170043945312	1051.454223632812	108.3358535766602	1386.938232421875	1009.993713378906	98.05278778076172	1268.59521484375	938.8731079101562	131.7777099609375	1070.2626953125	923.4781494140625	69.30625152587891	1047.459106445312	976.8893432617188	235.3890075683594	867.5550537109375	992.812255859375	197.9385070800781	847.4935302734375	922.2265014648438	158.5442199707031	967.1991577148438	921.4168090820312	247.5487823486328	688.765380859375	1000.7744140625	217.2883758544922	763.6665649414062	937.9036254882812	263.1573791503906	771.0403442382812	981.4089965820312	64.67378234863281	1391.822631835938	1318.810913085938	46.95379257202148	1327.996704101562	1376.517822265625	62.83068466186523	1067.645874023438	1430.92822265625	52.15690994262695	1053.473022460938	1338.547119140625	205.2265014648438	859.7550048828125	1424.477905273438	158.8814697265625	848.9942626953125	1480.493530273438	91.77058410644531	1005.814697265625	1453.781127929688	214.0383911132812	687.6804809570312	1436.98291015625	228.5052642822266	758.1282958984375	1451.699829101562	168.8096313476562	761.916259765625	1486.558349609375	56.80742645263672	1602.130493164062	1241.987060546875	223.3035736083984	1597.19677734375	1132.774536132812	190.3282623291016	1604.1650390625	1251.235473632812	82.97731018066406	1590.139892578125	1082.454467773438	93.38046264648438	966.509033203125	1003.49755859375	90.51222991943359	969.3790893554688	1361.607055664062	225.4610137939453	974.962158203125	1304.621948242188	207.2901611328125	965.049072265625	1042.0244140625	116.5307693481445	474.1123352050781	1022.327392578125	115.818733215332	616.733154296875	1012.039428710938	19.48468017578125	40.93630599975586	1070.137939453125	61.58926391601562	245.0364532470703	1035.080444335938	234.468994140625	42.94858551025391	1125.591064453125	156.8210144042969	43.88759613037109	1158.707641601562	145.9116821289062	40.31862640380859	1053.6875	-17.3776969909668	39.28674697875977	1128.09033203125	127.9545516967773	476.6546936035156	1338.532470703125	173.6903381347656	738.6697387695312	1360.112915039062	65.58434295654297	55.46141815185547	1305.422729492188	133.3329467773438	349.6918640136719	1324.242553710938	247.0138092041016	41.181884765625	1250.922241210938	173.6207885742188	45.54961776733398	1217.08837890625	148.2216186523438	45.16743850708008	1315.3994140625	-5.586708068847656	45.53313446044922	1249.444702148438	
4	0.03	8.302301406860352	991.4520874023438	1247.822875976562	4.396109580993652	982.2755126953125	1115.924926757812	8.301224708557129	1057.781860351562	1178.342163085938	231.4741973876953	1214.359619140625	1183.952880859375	-11.11096858978271	1159.357055664062	1170.192626953125	20.87142562866211	1409.713012695312	1155.415771484375	176.6192626953125	1332.7734375	1177.53271484375	-27.61113739013672	1265.048461914062	1222.229736328125	17.04046058654785	1370.158935546875	1051.427612304688	108.3210220336914	1386.918579101562	1009.957214355469	98.07278442382812	1268.576293945312	938.8541259765625	131.7599029541016	1070.24365234375	923.4627075195312	69.28406524658203	1047.451416015625	976.871826171875	235.3675689697266	867.5332641601562	992.8366088867188	197.9117584228516	847.4800415039062	922.242431640625	158.5389404296875	967.1823120117188	921.435546875	247.5048675537109	688.7398681640625	1000.853698730469	217.3051300048828	763.644775390625	937.9568481445312	263.1003723144531	771.013427734375	981.4611206054688	64.61335754394531	1391.846557617188	1318.671630859375	46.87762451171875	1328.01953125	1376.49365234375	62.81309509277344	1067.67626953125	1430.9111328125	52.14982223510742	1053.489501953125	1338.55078125	205.2319793701172	859.79443359375	1424.491821289062	158.8938598632812	849.0482788085938	1480.52392578125	91.75950622558594	1005.832885742188	1453.784545898438	214.06884765625	687.7727661132812	1436.9560546875	228.5100250244141	758.1333618164062	1451.703369140625	168.8248901367188	761.8973999023438	1486.67236328125	56.68413162231445	1602.105346679688	1241.91064453125	223.2828979492188	1597.224731445312	1132.757934570312	190.2224578857422	1604.176635742188	1251.188232421875	82.92529296875	1590.141845703125	1082.402587890625	93.3695068359375	966.5108032226562	1003.50830078125	90.51161193847656	969.3775024414062	1361.60302734375	225.4257354736328	974.9744262695312	1304.60498046875	207.2680816650391	965.0508422851562	1042.013061523438	116.5351943969727	474.1110229492188	1022.327453613281	115.8075637817383	616.732177734375	1012.041442871094	19.46720314025879	40.93206787109375	1070.136962890625	61.59438705444336	245.0380249023438	1035.087890625	234.4668884277344	42.95217514038086	1125.587036132812	156.8206634521484	43.88711929321289	1158.707641601562	145.9117584228516	40.31739044189453	1053.687866210938	-17.38340187072754	39.29182434082031	1128.093505859375	127.9545440673828	476.6557922363281	1338.533203125	173.6805572509766	738.6727294921875	1360.108276367188	65.58609771728516	55.46665191650391	1305.427368164062	133.3318786621094	349.6953125	1324.248168945312	247.0158233642578	41.18681716918945	1250.922241210938	173.6217651367188	45.55693054199219	1217.088623046875	148.2206573486328	45.16599273681641	1315.406372070312	-5.560802459716797	45.51226425170898	1249.422241210938	
